<?xml version="1.0" encoding="UTF-8"?>
<svg width="25px" height="25px" viewBox="0 0 25 25" version="1.1" xmlns="http://www.w3.org/2000/svg" xmlns:xlink="http://www.w3.org/1999/xlink">
    <!-- Generator: Sketch 41.2 (35397) - http://www.bohemiancoding.com/sketch -->
    <title>Artboard</title>
    <desc>Created with Sketch.</desc>
    <defs></defs>
    <g id="Page-1" stroke="none" stroke-width="1" fill="none" fill-rule="evenodd">
        <g id="Artboard" fill="#B8BECF">
            <path d="M13,13 L8.625,13 L8.625,14.25 L13.625,14.25 L14.25,14.25 L14.25,8 L13,8 L13,13 Z M13,23 C18.5228475,23 23,18.5228475 23,13 C23,7.4771525 18.5228475,3 13,3 C7.4771525,3 3,7.4771525 3,13 C3,18.5228475 7.4771525,23 13,23 Z M13,21.75 C17.8324916,21.75 21.75,17.8324916 21.75,13 C21.75,8.16750844 17.8324916,4.25 13,4.25 C8.16750844,4.25 4.25,8.16750844 4.25,13 C4.25,17.8324916 8.16750844,21.75 13,21.75 Z" id="Clock"></path>
        </g>
    </g>
</svg>