<?xml version="1.0" encoding="UTF-8"?>
<svg width="16px" height="16px" viewBox="0 0 16 16" version="1.1" xmlns="http://www.w3.org/2000/svg" xmlns:xlink="http://www.w3.org/1999/xlink">
    <!-- Generator: Sketch 41.2 (35397) - http://www.bohemiancoding.com/sketch -->
    <title>Artboard</title>
    <desc>Created with Sketch.</desc>
    <defs></defs>
    <g id="Page-1" stroke="none" stroke-width="1" fill="none" fill-rule="evenodd">
        <g id="Artboard" fill="#B8BECF">
            <path d="M8,16 C12.418278,16 16,12.418278 16,8 C16,3.581722 12.418278,0 8,0 C3.581722,0 0,3.581722 0,8 C0,12.418278 3.581722,16 8,16 Z M8,15 C11.8659932,15 15,11.8659932 15,8 C15,4.13400675 11.8659932,1 8,1 C4.13400675,1 1,4.13400675 1,8 C1,11.8659932 4.13400675,15 8,15 Z M7.89041096,8.28767123 C7.57990712,8.19634658 7.26712486,8.08219247 6.95205479,7.94520548 C6.63698473,7.80821849 6.35388253,7.63470425 6.10273973,7.42465753 C5.85159692,7.21461082 5.64611952,6.9611887 5.48630137,6.66438356 C5.32648322,6.36757842 5.24657534,6.00913452 5.24657534,5.5890411 C5.24657534,5.19634507 5.31735089,4.84246733 5.45890411,4.52739726 C5.60045733,4.21232719 5.79223623,3.94292349 6.03424658,3.71917808 C6.27625692,3.49543267 6.55707603,3.32191842 6.87671233,3.19863014 C7.19634863,3.07534185 7.53424479,3.0045663 7.89041096,2.98630137 L7.89041096,2 L8.54794521,2 L8.54794521,2.98630137 C8.76712438,2.99543384 8.99314952,3.02283082 9.2260274,3.06849315 C9.45890527,3.11415548 9.68721349,3.18264795 9.9109589,3.2739726 C10.1347043,3.36529726 10.347031,3.47945137 10.5479452,3.61643836 C10.7488595,3.75342534 10.9269399,3.9132411 11.0821918,4.09589041 L10.3287671,4.67123288 C10.1187204,4.36986151 9.85159979,4.14383637 9.52739726,3.99315068 C9.20319473,3.842465 8.87671397,3.76255712 8.54794521,3.75342466 L8.54794521,7.52054795 C8.8949789,7.63927 9.23515815,7.77397185 9.56849315,7.92465753 C9.90182815,8.07534322 10.1986288,8.26255596 10.4589041,8.48630137 C10.7191794,8.71004678 10.9292229,8.9771674 11.0890411,9.28767123 C11.2488592,9.59817507 11.3287671,9.97716671 11.3287671,10.4246575 C11.3287671,10.8082211 11.2579916,11.1575327 11.1164384,11.4726027 C10.9748851,11.7876728 10.7785401,12.0570765 10.5273973,12.2808219 C10.2762545,12.5045673 9.98173685,12.6803647 9.64383562,12.8082192 C9.30593438,12.9360737 8.94064123,13.0045662 8.54794521,13.0136986 L8.54794521,14 L7.89041096,14 L7.89041096,13.0136986 C7.26940329,12.9954337 6.71461432,12.8538826 6.2260274,12.5890411 C5.73744048,12.3241996 5.32876877,11.9817373 5,11.5616438 L5.78082192,11.0136986 C5.89954397,11.2237453 6.0502274,11.4018258 6.23287671,11.5479452 C6.41552603,11.6940647 6.60502185,11.8173511 6.80136986,11.9178082 C6.99771788,12.0182653 7.19177986,12.0936071 7.38356164,12.1438356 C7.57534342,12.1940642 7.74429151,12.2191781 7.89041096,12.2191781 L7.89041096,8.28767123 Z M8.54794521,12.2191781 C8.74885945,12.2100456 8.95661993,12.1712332 9.17123288,12.1027397 C9.38584582,12.0342462 9.57990781,11.9269414 9.75342466,11.7808219 C9.92694151,11.6347025 10.0684926,11.4452066 10.1780822,11.2123288 C10.2876718,10.9794509 10.3424658,10.6940656 10.3424658,10.3561644 C10.3424658,9.89040863 10.1735177,9.49771849 9.83561644,9.17808219 C9.49771521,8.85844589 9.06849575,8.61643918 8.54794521,8.45205479 L8.54794521,12.2191781 Z M7.89041096,3.75342466 C7.41552274,3.77168959 7.01370027,3.93835459 6.68493151,4.25342466 C6.35616274,4.56849473 6.19178082,4.98629877 6.19178082,5.50684932 C6.19178082,6.00000247 6.34703041,6.38584336 6.65753425,6.66438356 C6.96803808,6.94292377 7.37899288,7.15068425 7.89041096,7.28767123 L7.89041096,3.75342466 Z" id="Money"></path>
        </g>
    </g>
</svg>