<?xml version="1.0" encoding="UTF-8"?>
<svg width="25px" height="25px" viewBox="0 0 25 25" version="1.1" xmlns="http://www.w3.org/2000/svg" xmlns:xlink="http://www.w3.org/1999/xlink">
    <!-- Generator: Sketch 41.2 (35397) - http://www.bohemiancoding.com/sketch -->
    <title>Artboard</title>
    <desc>Created with Sketch.</desc>
    <defs></defs>
    <g id="Page-1" stroke="none" stroke-width="1" fill="none" fill-rule="evenodd">
        <g id="Artboard" fill="#B8BECF">
            <path d="M13,23 C18.5228475,23 23,18.5228475 23,13 C23,7.4771525 18.5228475,3 13,3 C7.4771525,3 3,7.4771525 3,13 C3,18.5228475 7.4771525,23 13,23 Z M13,21.75 C17.8324916,21.75 21.75,17.8324916 21.75,13 C21.75,8.16750844 17.8324916,4.25 13,4.25 C8.16750844,4.25 4.25,8.16750844 4.25,13 C4.25,17.8324916 8.16750844,21.75 13,21.75 Z M12.8630137,13.359589 C12.4748839,13.2454332 12.0839061,13.1027406 11.6900685,12.9315068 C11.2962309,12.7602731 10.9423532,12.5433803 10.6284247,12.2808219 C10.3144961,12.0182635 10.0576494,11.7014859 9.85787671,11.3304795 C9.65810402,10.959473 9.55821918,10.5114182 9.55821918,9.98630137 C9.55821918,9.49543134 9.64668861,9.05308416 9.82363014,8.65924658 C10.0005717,8.26540899 10.2402953,7.92865437 10.5428082,7.6489726 C10.8453211,7.36929084 11.196345,7.15239803 11.5958904,6.99828767 C11.9954358,6.84417731 12.417806,6.75570788 12.8630137,6.73287671 L12.8630137,5.5 L13.6849315,5.5 L13.6849315,6.73287671 C13.9589055,6.74429229 14.2414369,6.77853853 14.5325342,6.83561644 C14.8236316,6.89269435 15.1090169,6.97830993 15.3886986,7.09246575 C15.6683804,7.20662158 15.9337887,7.34931421 16.1849315,7.52054795 C16.4360743,7.69178168 16.6586748,7.89155137 16.8527397,8.11986301 L15.9109589,8.8390411 C15.6484005,8.46232688 15.3144997,8.17979546 14.9092466,7.99143836 C14.5039934,7.80308125 14.0958925,7.7031964 13.6849315,7.69178082 L13.6849315,12.4006849 C14.1187236,12.5490875 14.5439477,12.7174648 14.9606164,12.9058219 C15.3772852,13.094179 15.748286,13.3281949 16.0736301,13.6078767 C16.3989742,13.8875585 16.6615287,14.2214592 16.8613014,14.609589 C17.0610741,14.9977188 17.1609589,15.4714584 17.1609589,16.0308219 C17.1609589,16.5102764 17.0724895,16.9469158 16.8955479,17.3407534 C16.7186064,17.734591 16.4731751,18.0713456 16.1592466,18.3510274 C15.8453181,18.6307092 15.4771711,18.8504558 15.0547945,19.010274 C14.632418,19.1700921 14.1758015,19.2557077 13.6849315,19.2671233 L13.6849315,20.5 L12.8630137,20.5 L12.8630137,19.2671233 C12.0867541,19.2442921 11.3932679,19.0673533 10.7825342,18.7363014 C10.1718006,18.4052495 9.66096096,17.9771716 9.25,17.4520548 L10.2260274,16.7671233 C10.37443,17.0296817 10.5627842,17.2522822 10.7910959,17.4349315 C11.0194075,17.6175808 11.2562773,17.7716889 11.5017123,17.8972603 C11.7471473,18.0228317 11.9897248,18.1170088 12.2294521,18.1797945 C12.4691793,18.2425802 12.6803644,18.2739726 12.8630137,18.2739726 L12.8630137,13.359589 Z M13.6849315,18.2739726 C13.9360743,18.262557 14.1957749,18.2140415 14.4640411,18.1284247 C14.7323073,18.0428078 14.9748848,17.9086767 15.1917808,17.7260274 C15.4086769,17.5433781 15.5856158,17.3065083 15.7226027,17.015411 C15.8595897,16.7243136 15.9280822,16.367582 15.9280822,15.9452055 C15.9280822,15.3630108 15.7168971,14.8721481 15.2945205,14.4726027 C14.872144,14.0730574 14.3356197,13.770549 13.6849315,13.5650685 L13.6849315,18.2739726 Z M12.8630137,7.69178082 C12.2694034,7.71461199 11.7671253,7.92294324 11.3561644,8.31678082 C10.9452034,8.71061841 10.739726,9.23287346 10.739726,9.88356164 C10.739726,10.5000031 10.933788,10.9823042 11.3219178,11.3304795 C11.7100476,11.6786547 12.2237411,11.9383553 12.8630137,12.109589 L12.8630137,7.69178082 Z" id="Money"></path>
        </g>
    </g>
</svg>